<svg enable-background="new 0 0 2217.656 1429.298" height="1429.298" viewBox="0 0 2217.656 1429.298" width="2217.656" xmlns="http://www.w3.org/2000/svg"><path d="m2079.266 2.5h-1456.486l-152.89 655.821 746.606 603.222 709.879-603.222z" fill="#92acef"/><path d="m1926.375 658.321c269.571 4.023 410.391-456.661 152.891-655.821z" fill="#92acef"/><path d="m1946.006 576.308c185.048-7.786 284.27-347.162 111.727-481.255z" fill="#cad5f3"/><g fill="#111"><path d="m1926.378 660.821c-.188 0-.379-.021-.57-.066-1.345-.313-2.181-1.658-1.867-3.002l152.175-652.753h-1451.351l-152.44 653.889c-.313 1.344-1.658 2.181-3.002 1.867-1.345-.313-2.181-1.658-1.867-3.002l152.89-655.821c.263-1.132 1.272-1.933 2.434-1.933h1456.485c.763 0 1.484.348 1.958.946.475.598.65 1.379.477 2.122l-152.89 655.821c-.269 1.153-1.297 1.932-2.432 1.932z"/><path d="m1946.005 578.808c-1.332 0-2.439-1.051-2.496-2.395-.058-1.379 1.013-2.545 2.393-2.603 78.263-3.293 149.713-70.762 182.028-171.886 31.746-99.344 21.878-232.148-71.73-304.896-1.09-.847-1.287-2.418-.44-3.508.847-1.089 2.418-1.287 3.508-.44 43.4 33.729 72.597 82.845 84.435 142.04 10.619 53.099 6.709 112.878-11.01 168.327-15.518 48.562-40.261 90.622-71.555 121.633-33.704 33.4-73.479 51.979-115.025 53.727-.037 0-.073.001-.108.001z"/><path d="m1929.82 660.847c-1.162 0-2.319-.009-3.482-.026-1.381-.021-2.483-1.156-2.462-2.537.02-1.381 1.157-2.532 2.537-2.462 113.932 1.678 214.124-81.299 261.475-216.608 47.917-136.924 32.439-324.45-110.151-434.736-1.092-.845-1.293-2.415-.448-3.507.844-1.093 2.415-1.293 3.507-.448 65.472 50.639 109.643 121.846 127.738 205.925 16.233 75.432 10.578 158.683-15.926 234.418-22.397 64-57.831 118.413-102.47 157.353-47.019 41.015-102.384 62.628-160.318 62.628z"/><path d="m473.335 660.847c-1.162 0-2.319-.009-3.482-.026-1.381-.021-2.483-1.156-2.462-2.537.02-1.381 1.169-2.532 2.537-2.462 113.968 1.653 214.124-81.298 261.475-216.607 47.917-136.924 32.44-324.451-110.151-434.736-1.092-.845-1.293-2.415-.448-3.507.845-1.093 2.415-1.293 3.507-.448 65.472 50.639 109.643 121.846 127.738 205.925 16.233 75.431 10.577 158.683-15.926 234.418-22.397 64-57.83 118.412-102.469 157.353-47.021 41.014-102.386 62.627-160.319 62.627z"/></g><path d="m1357.058 658.321h-1354.558v679.961c0 48.886 39.63 88.516 88.516 88.516h1746.844c48.886 0 88.516-39.63 88.516-88.516v-679.961z" fill="#92acef"/><path d="m1268.543 1429.298h-1177.527c-50.186 0-91.016-40.83-91.016-91.016v-679.961c0-1.381 1.119-2.5 2.5-2.5h1354.558c1.381 0 2.5 1.119 2.5 2.5v679.961c0 50.186-40.829 91.016-91.015 91.016zm-1263.543-768.477v677.461c0 47.429 38.586 86.016 86.016 86.016h1177.527c47.429 0 86.016-38.586 86.016-86.016v-677.461z" fill="#111"/><path d="m1837.859 1429.298h-392.286c-50.186 0-91.016-40.83-91.016-91.016v-679.961c0-1.381 1.119-2.5 2.5-2.5h569.317c1.381 0 2.5 1.119 2.5 2.5v679.961c.001 50.186-40.828 91.016-91.015 91.016zm-478.301-768.477v677.461c0 47.429 38.586 86.016 86.016 86.016h392.286c47.429 0 86.016-38.586 86.016-86.016v-677.461z" fill="#111"/><path d="m1801.648 1354.376h-319.864c-27.776 0-50.293-22.517-50.293-50.293v-573.34h420.449v573.34c.001 27.776-22.516 50.293-50.292 50.293z" fill="#cad5f3"/><path d="m1801.649 1356.876h-319.864c-29.11 0-52.793-23.683-52.793-52.793v-573.34c0-1.381 1.119-2.5 2.5-2.5h420.45c1.381 0 2.5 1.119 2.5 2.5v573.34c0 29.11-23.683 52.793-52.793 52.793zm-367.657-623.633v570.84c0 26.353 21.44 47.793 47.793 47.793h319.864c26.353 0 47.793-21.44 47.793-47.793v-570.84z" fill="#111"/><path d="m1220.261 1354.376h-1084.988c-31.355 0-56.774-25.419-56.774-56.774v-566.859h1198.536v566.859c0 31.355-25.418 56.774-56.774 56.774z" fill="#cad5f3"/><path d="m1220.261 1356.876h-1084.987c-32.684 0-59.274-26.59-59.274-59.274v-566.859c0-1.381 1.119-2.5 2.5-2.5h1198.536c1.381 0 2.5 1.119 2.5 2.5v566.859c-.001 32.684-26.591 59.274-59.275 59.274zm-1139.261-623.633v564.359c0 29.927 24.347 54.274 54.274 54.274h1084.988c29.927 0 54.274-24.347 54.274-54.274v-564.359z" fill="#111"/><path d="m1641.717 793.607c-75.274 0-136.295 61.021-136.295 136.295 0 75.273 61.021 136.295 136.295 136.295s136.295-61.022 136.295-136.295c-.001-75.274-61.022-136.295-136.295-136.295zm0 240.401c-57.496 0-104.106-46.609-104.106-104.106s46.61-104.106 104.106-104.106 104.106 46.61 104.106 104.106-46.61 104.106-104.106 104.106z" fill="#92acef"/><path d="m1641.717 1068.697c-76.532 0-138.795-62.263-138.795-138.795s62.263-138.795 138.795-138.795 138.794 62.263 138.794 138.795-62.262 138.795-138.794 138.795zm0-272.59c-73.775 0-133.795 60.02-133.795 133.795s60.02 133.795 133.795 133.795c73.774 0 133.794-60.02 133.794-133.795s-60.02-133.795-133.794-133.795z" fill="#111"/><path d="m1641.717 1036.508c-58.783 0-106.606-47.823-106.606-106.605 0-58.783 47.823-106.606 106.606-106.606 58.782 0 106.605 47.823 106.605 106.606-0 58.781-47.823 106.605-106.605 106.605zm0-208.212c-56.026 0-101.606 45.58-101.606 101.606 0 56.025 45.58 101.605 101.606 101.605 56.025 0 101.605-45.58 101.605-101.605-0-56.026-45.58-101.606-101.605-101.606z" fill="#111"/><path d="m1658.506 832.663h-33.578c-4.431 0-8.022-3.592-8.022-8.022v-27.536c0-4.43 3.592-8.022 8.022-8.022h33.578c4.431 0 8.022 3.592 8.022 8.022v27.536c0 4.431-3.592 8.022-8.022 8.022z" fill="#92acef"/><path d="m1658.505 835.163h-33.578c-5.802 0-10.522-4.72-10.522-10.522v-27.536c0-5.802 4.72-10.522 10.522-10.522h33.578c5.802 0 10.522 4.72 10.522 10.522v27.536c.001 5.802-4.719 10.522-10.522 10.522zm-33.577-43.581c-3.045 0-5.522 2.478-5.522 5.522v27.536c0 3.045 2.478 5.522 5.522 5.522h33.578c3.045 0 5.522-2.477 5.522-5.522v-27.536c0-3.045-2.478-5.522-5.522-5.522z" fill="#111"/><path d="m1837.859 1429.298h-392.286c-50.186 0-91.016-40.83-91.016-91.016 0-1.381 1.119-2.5 2.5-2.5s2.5 1.119 2.5 2.5c0 47.429 38.586 86.016 86.016 86.016h392.286c47.429 0 86.016-38.586 86.016-86.016v-677.461h-566.817c-1.381 0-2.5-1.119-2.5-2.5s1.119-2.5 2.5-2.5h569.317c1.381 0 2.5 1.119 2.5 2.5v679.961c0 50.186-40.829 91.016-91.016 91.016z" fill="#111"/><path d="m677.097 878.939c-61.107 0-110.645-49.537-110.645-110.644v-109.974h221.289v109.974c0 61.107-49.537 110.644-110.644 110.644z" fill="#92acef"/><path d="m677.097 881.439c-62.388 0-113.145-50.756-113.145-113.145v-109.973c0-1.381 1.119-2.5 2.5-2.5h221.289c1.381 0 2.5 1.119 2.5 2.5v109.974c0 62.388-50.756 113.144-113.144 113.144zm-108.145-220.618v107.474c0 59.631 48.514 108.145 108.145 108.145s108.145-48.514 108.145-108.145v-107.474z" fill="#111"/><path d="m677.098 815.33c-30.121 0-52.835-26.043-52.835-60.579 0-14.443 4.28-28.071 12.051-38.373 9.697-12.854 24.181-19.934 40.784-19.934 11.516 0 20.885 9.369 20.885 20.885s-9.369 20.885-20.885 20.885c-3.505 0-5.66.961-7.438 3.318-2.306 3.055-3.628 7.873-3.628 13.218 0 6.137 2.705 18.809 11.065 18.809 11.516 0 20.885 9.369 20.885 20.885s-9.368 20.886-20.884 20.886zm0-113.885c-14.997 0-28.063 6.373-36.793 17.945-7.121 9.44-11.042 21.998-11.042 35.361 0 31.685 20.565 55.579 47.835 55.579 8.759 0 15.885-7.126 15.885-15.885s-7.126-15.885-15.885-15.885c-11.704 0-16.065-14.604-16.065-23.809 0-6.41 1.69-12.325 4.636-16.229 2.73-3.621 6.362-5.307 11.429-5.307 8.759 0 15.885-7.126 15.885-15.885s-7.126-15.885-15.885-15.885z" fill="#111"/></svg>