<svg xmlns="http://www.w3.org/2000/svg"  viewBox="0 0 100 100" width="500px" height="500px"><path fill="#c7ede6" d="M87.215,56.71C88.35,54.555,89,52.105,89,49.5c0-6.621-4.159-12.257-10.001-14.478 C78.999,35.015,79,35.008,79,35c0-11.598-9.402-21-21-21c-9.784,0-17.981,6.701-20.313,15.757C36.211,29.272,34.638,29,33,29 c-7.692,0-14.023,5.793-14.89,13.252C12.906,43.353,9,47.969,9,53.5C9,59.851,14.149,65,20.5,65c0.177,0,0.352-0.012,0.526-0.022 C21.022,65.153,21,65.324,21,65.5C21,76.822,30.178,86,41.5,86c6.437,0,12.175-2.972,15.934-7.614C59.612,80.611,62.64,82,66,82 c4.65,0,8.674-2.65,10.666-6.518C77.718,75.817,78.837,76,80,76c6.075,0,11-4.925,11-11C91,61.689,89.53,58.727,87.215,56.71z"/><path fill="#fff" d="M19.405,44H9.5C9.224,44,9,43.776,9,43.5S9.224,43,9.5,43h9.905c0.276,0,0.5,0.224,0.5,0.5 S19.682,44,19.405,44z"/><path fill="#fff" d="M22.5,44h-1c-0.276,0-0.5-0.224-0.5-0.5s0.224-0.5,0.5-0.5h1c0.276,0,0.5,0.224,0.5,0.5 S22.777,44,22.5,44z"/><path fill="#fff" d="M27.491,46H18.5c-0.276,0-0.5-0.224-0.5-0.5s0.224-0.5,0.5-0.5h8.991c0.276,0,0.5,0.224,0.5,0.5 S27.767,46,27.491,46z"/><path fill="#fff" d="M16.5,46h-1c-0.276,0-0.5-0.224-0.5-0.5s0.224-0.5,0.5-0.5h1c0.276,0,0.5,0.224,0.5,0.5 S16.777,46,16.5,46z"/><path fill="#fff" d="M13.5,46h-2c-0.276,0-0.5-0.224-0.5-0.5s0.224-0.5,0.5-0.5h2c0.276,0,0.5,0.224,0.5,0.5 S13.777,46,13.5,46z"/><path fill="#fff" d="M19.5,48h-2c-0.276,0-0.5-0.224-0.5-0.5s0.224-0.5,0.5-0.5h2c0.276,0,0.5,0.224,0.5,0.5 S19.776,48,19.5,48z"/><path fill="#fff" d="M22.5,39c-0.177,0-0.823,0-1,0c-0.276,0-0.5,0.224-0.5,0.5c0,0.276,0.224,0.5,0.5,0.5 c0.177,0,0.823,0,1,0c0.276,0,0.5-0.224,0.5-0.5C23,39.224,22.776,39,22.5,39z"/><path fill="#fff" d="M22.5,41c-0.177,0-4.823,0-5,0c-0.276,0-0.5,0.224-0.5,0.5c0,0.276,0.224,0.5,0.5,0.5 c0.177,0,4.823,0,5,0c0.276,0,0.5-0.224,0.5-0.5C23,41.224,22.776,41,22.5,41z"/><path fill="#fff" d="M27.5,43c-0.177,0-2.823,0-3,0c-0.276,0-0.5,0.224-0.5,0.5c0,0.276,0.224,0.5,0.5,0.5 c0.177,0,2.823,0,3,0c0.276,0,0.5-0.224,0.5-0.5C28,43.224,27.776,43,27.5,43z"/><g><path fill="#fff" d="M84.5,65h-10c-0.276,0-0.5-0.224-0.5-0.5s0.224-0.5,0.5-0.5h10c0.276,0,0.5,0.224,0.5,0.5 S84.776,65,84.5,65z"/><path fill="#fff" d="M88.5,65h-2c-0.276,0-0.5-0.224-0.5-0.5s0.224-0.5,0.5-0.5h2c0.276,0,0.5,0.224,0.5,0.5 S88.776,65,88.5,65z"/><path fill="#fff" d="M93.5,67h-10c-0.276,0-0.5-0.224-0.5-0.5s0.224-0.5,0.5-0.5h10c0.276,0,0.5,0.224,0.5,0.5 S93.777,67,93.5,67z"/><path fill="#fff" d="M81.5,67h-1c-0.276,0-0.5-0.224-0.5-0.5s0.224-0.5,0.5-0.5h1c0.276,0,0.5,0.224,0.5,0.5 S81.776,67,81.5,67z"/><path fill="#fff" d="M78.47,67H76.5c-0.276,0-0.5-0.224-0.5-0.5s0.224-0.5,0.5-0.5h1.97c0.276,0,0.5,0.224,0.5,0.5 S78.746,67,78.47,67z"/><path fill="#fff" d="M87.5,63h-5c-0.276,0-0.5-0.224-0.5-0.5s0.224-0.5,0.5-0.5h5c0.276,0,0.5,0.224,0.5,0.5 S87.777,63,87.5,63z"/><path fill="#fff" d="M84.5,69h-2c-0.276,0-0.5-0.224-0.5-0.5s0.224-0.5,0.5-0.5h2c0.276,0,0.5,0.224,0.5,0.5 S84.776,69,84.5,69z"/></g><g><path fill="#fdfcef" d="M68.875,31.5c0,0-3.64,0-6.125,0s-4.5-2.015-4.5-4.5c0-2.333,1.782-4.229,4.055-4.455 C62.283,22.364,62.25,22.187,62.25,22c0-2.485,2.015-4.5,4.5-4.5c1.438,0,2.703,0.686,3.527,1.736 c0.14-2.636,2.302-4.736,4.973-4.736c2.761,0,5,2.239,5,5c0,0.446-0.077,0.87-0.187,1.282c0.642-0.777,1.6-1.282,2.687-1.282 c1.781,0,3.234,1.335,3.455,3.055c0.181-0.022,0.358-0.055,0.545-0.055c2.485,0,4.5,2.015,4.5,4.5s-2.015,4.5-4.5,4.5 s-9.5,0-9.5,0h-5.375V32h-3V31.5z"/><path fill="#472b29" d="M75.25,14c3.033,0,5.5,2.467,5.5,5.5c0,0.016,0,0.031,0,0.047c0.602-0.354,1.29-0.547,2-0.547 c1.831,0,3.411,1.261,3.858,3.005C86.655,22.002,86.702,22,86.75,22c2.757,0,5,2.243,5,5s-2.243,5-5,5H71.875 c-0.276,0-0.5-0.224-0.5-0.5s0.224-0.5,0.5-0.5H86.75c2.206,0,4-1.794,4-4s-1.794-4-4-4c-0.117,0-0.23,0.017-0.343,0.032 l-0.141,0.019c-0.021,0.003-0.041,0.004-0.062,0.004c-0.246,0-0.462-0.185-0.495-0.437C85.518,21.125,84.246,20,82.75,20 c-0.885,0-1.723,0.401-2.301,1.1c-0.098,0.118-0.241,0.182-0.386,0.182c-0.078,0-0.156-0.018-0.228-0.056 c-0.209-0.107-0.314-0.346-0.254-0.573c0.116-0.436,0.17-0.802,0.17-1.153c0-2.481-2.019-4.5-4.5-4.5 c-2.381,0-4.347,1.872-4.474,4.263c-0.011,0.208-0.15,0.387-0.349,0.45c-0.05,0.016-0.101,0.024-0.152,0.024 c-0.15,0-0.296-0.069-0.392-0.192C69.112,18.563,67.971,18,66.75,18c-2.206,0-4,1.794-4,4c0,0.117,0.017,0.23,0.032,0.343 l0.019,0.141c0.016,0.134-0.022,0.268-0.106,0.373c-0.084,0.105-0.207,0.172-0.34,0.185C60.299,23.247,58.75,24.949,58.75,27 c0,2.206,1.794,4,4,4h6.125c0.276,0,0.5,0.224,0.5,0.5s-0.224,0.5-0.5,0.5H62.75c-2.757,0-5-2.243-5-5 c0-2.397,1.689-4.413,4.003-4.877C61.751,22.082,61.75,22.041,61.75,22c0-2.757,2.243-5,5-5c1.176,0,2.293,0.416,3.183,1.164 C70.531,15.76,72.695,14,75.25,14L75.25,14z"/><path fill="#472b29" d="M76.75,21c1.403,0,2.609,0.999,2.913,2.341C80.03,23.119,80.449,23,80.875,23 c1.202,0,2.198,0.897,2.353,2.068C83.431,25.022,83.624,25,83.813,25c1.529,0,2.811,1.2,2.918,2.732 C86.74,27.87,86.636,27.99,86.499,28c-0.006,0-0.012,0-0.018,0c-0.13,0-0.24-0.101-0.249-0.232 c-0.089-1.271-1.151-2.268-2.419-2.268c-0.229,0-0.47,0.042-0.738,0.127c-0.022,0.007-0.045,0.01-0.067,0.01 c-0.055,0-0.11-0.02-0.156-0.054c-0.064-0.047-0.102-0.129-0.102-0.209c0-1.034-0.841-1.875-1.875-1.875 c-0.447,0-0.885,0.168-1.231,0.473c-0.047,0.041-0.106,0.063-0.165,0.063c-0.032,0-0.063-0.006-0.093-0.019 c-0.088-0.035-0.148-0.117-0.155-0.212c-0.102-1.292-1.191-2.305-2.479-2.305c-0.208,0-0.425,0.034-0.682,0.107 c-0.023,0.007-0.047,0.01-0.07,0.01c-0.109,0-0.207-0.073-0.239-0.182c-0.038-0.133,0.039-0.271,0.172-0.309 C76.233,21.04,76.494,21,76.75,21L76.75,21z"/></g><g><polygon fill="#836f61" points="76,50 30,50 34,41 72,41"/><polygon fill="#472b29" points="30.001,35 76.001,35 72.001,41 34.001,41"/><path fill="#ce942b" d="M30.721,35.3c0.313-5.189,4.008-9.6,6.279-9.6h32c3.213,0,6.047,4.41,6.284,9.6H30.721z"/><path fill="#472b29" d="M69,26.4c2.656,0,5.097,3.757,5.531,8.2H31.491c0.583-4.535,3.835-8.2,5.509-8.2H69 M69,25H37 c-3,0-7,5.5-7,11h46C76,30.5,73,25,69,25L69,25z"/><circle cx="44.5" cy="44.5" r="3" fill="#f1bc19"/><path fill="#472b29" d="M44.5,48c-1.93,0-3.5-1.57-3.5-3.5s1.57-3.5,3.5-3.5s3.5,1.57,3.5,3.5S46.43,48,44.5,48z M44.5,42 c-1.379,0-2.5,1.122-2.5,2.5s1.121,2.5,2.5,2.5s2.5-1.122,2.5-2.5S45.879,42,44.5,42z"/><circle cx="40.5" cy="46.5" r="3" fill="#cbc9bc"/><path fill="#472b29" d="M40.5,50c-1.93,0-3.5-1.57-3.5-3.5s1.57-3.5,3.5-3.5s3.5,1.57,3.5,3.5S42.43,50,40.5,50z M40.5,44 c-1.379,0-2.5,1.122-2.5,2.5s1.121,2.5,2.5,2.5s2.5-1.122,2.5-2.5S41.879,44,40.5,44z"/><circle cx="36.5" cy="48.5" r="3" fill="#f5e690"/><path fill="#472b29" d="M36.5,52c-1.93,0-3.5-1.57-3.5-3.5s1.57-3.5,3.5-3.5s3.5,1.57,3.5,3.5S38.43,52,36.5,52z M36.5,46 c-1.379,0-2.5,1.122-2.5,2.5s1.121,2.5,2.5,2.5s2.5-1.122,2.5-2.5S37.879,46,36.5,46z"/><circle cx="41.5" cy="49.5" r="3" fill="#fbcd59"/><path fill="#472b29" d="M41.5,53c-1.93,0-3.5-1.57-3.5-3.5s1.57-3.5,3.5-3.5s3.5,1.57,3.5,3.5S43.43,53,41.5,53z M41.5,47 c-1.379,0-2.5,1.122-2.5,2.5s1.121,2.5,2.5,2.5s2.5-1.122,2.5-2.5S42.879,47,41.5,47z"/><circle cx="48.5" cy="43.5" r="3" fill="#cbc9bc"/><path fill="#472b29" d="M48.5,47c-1.93,0-3.5-1.57-3.5-3.5s1.57-3.5,3.5-3.5s3.5,1.57,3.5,3.5S50.43,47,48.5,47z M48.5,41 c-1.379,0-2.5,1.122-2.5,2.5s1.121,2.5,2.5,2.5s2.5-1.122,2.5-2.5S49.879,41,48.5,41z"/><circle cx="53.5" cy="42.5" r="3" fill="#f5e690"/><path fill="#472b29" d="M53.5,46c-1.93,0-3.5-1.57-3.5-3.5s1.57-3.5,3.5-3.5s3.5,1.57,3.5,3.5S55.43,46,53.5,46z M53.5,40 c-1.379,0-2.5,1.122-2.5,2.5s1.121,2.5,2.5,2.5s2.5-1.122,2.5-2.5S54.879,40,53.5,40z"/><circle cx="62.5" cy="44.5" r="3" fill="#f1bc19"/><path fill="#472b29" d="M62.5,48c-1.93,0-3.5-1.57-3.5-3.5s1.57-3.5,3.5-3.5s3.5,1.57,3.5,3.5S64.43,48,62.5,48z M62.5,42 c-1.379,0-2.5,1.122-2.5,2.5s1.121,2.5,2.5,2.5s2.5-1.122,2.5-2.5S63.879,42,62.5,42z"/><circle cx="66.5" cy="45.5" r="3" fill="#cbc9bc"/><path fill="#472b29" d="M66.5,49c-1.93,0-3.5-1.57-3.5-3.5s1.57-3.5,3.5-3.5s3.5,1.57,3.5,3.5S68.43,49,66.5,49z M66.5,43 c-1.379,0-2.5,1.122-2.5,2.5s1.121,2.5,2.5,2.5s2.5-1.122,2.5-2.5S67.879,43,66.5,43z"/><circle cx="69.5" cy="48.5" r="3" fill="#f5e690"/><path fill="#472b29" d="M69.5,52c-1.93,0-3.5-1.57-3.5-3.5s1.57-3.5,3.5-3.5s3.5,1.57,3.5,3.5S71.43,52,69.5,52z M69.5,46 c-1.379,0-2.5,1.122-2.5,2.5s1.121,2.5,2.5,2.5s2.5-1.122,2.5-2.5S70.879,46,69.5,46z"/><circle cx="58.5" cy="44.5" r="3" fill="#fbcd59"/><path fill="#472b29" d="M58.5,48c-1.93,0-3.5-1.57-3.5-3.5s1.57-3.5,3.5-3.5s3.5,1.57,3.5,3.5S60.43,48,58.5,48z M58.5,42 c-1.379,0-2.5,1.122-2.5,2.5s1.121,2.5,2.5,2.5s2.5-1.122,2.5-2.5S59.879,42,58.5,42z"/><circle cx="50.5" cy="47.5" r="3" fill="#f1bc19"/><path fill="#472b29" d="M50.5,51c-1.93,0-3.5-1.57-3.5-3.5s1.57-3.5,3.5-3.5s3.5,1.57,3.5,3.5S52.43,51,50.5,51z M50.5,45 c-1.379,0-2.5,1.122-2.5,2.5s1.121,2.5,2.5,2.5s2.5-1.122,2.5-2.5S51.879,45,50.5,45z"/><circle cx="54.5" cy="47.5" r="3" fill="#f5e690"/><path fill="#472b29" d="M54.5,51c-1.93,0-3.5-1.57-3.5-3.5s1.57-3.5,3.5-3.5s3.5,1.57,3.5,3.5S56.43,51,54.5,51z M54.5,45 c-1.379,0-2.5,1.122-2.5,2.5s1.121,2.5,2.5,2.5s2.5-1.122,2.5-2.5S55.879,45,54.5,45z"/><circle cx="59.5" cy="49.5" r="3" fill="#fbcd59"/><path fill="#472b29" d="M59.5,53c-1.93,0-3.5-1.57-3.5-3.5s1.57-3.5,3.5-3.5s3.5,1.57,3.5,3.5S61.43,53,59.5,53z M59.5,47 c-1.379,0-2.5,1.122-2.5,2.5s1.121,2.5,2.5,2.5s2.5-1.122,2.5-2.5S60.879,47,59.5,47z"/><circle cx="65.5" cy="48.5" r="3" fill="#fbcd59"/><path fill="#472b29" d="M65.5,52c-1.93,0-3.5-1.57-3.5-3.5s1.57-3.5,3.5-3.5s3.5,1.57,3.5,3.5S67.43,52,65.5,52z M65.5,46 c-1.379,0-2.5,1.122-2.5,2.5s1.121,2.5,2.5,2.5s2.5-1.122,2.5-2.5S66.879,46,65.5,46z"/><circle cx="45.5" cy="47.5" r="3" fill="#fbcd59"/><path fill="#472b29" d="M45.5,51c-1.93,0-3.5-1.57-3.5-3.5s1.57-3.5,3.5-3.5s3.5,1.57,3.5,3.5S47.43,51,45.5,51z M45.5,45 c-1.379,0-2.5,1.122-2.5,2.5s1.121,2.5,2.5,2.5s2.5-1.122,2.5-2.5S46.879,45,45.5,45z"/><ellipse cx="60.5" cy="75.5" fill="#fbcd59" rx="3" ry="2"/><path fill="#472b29" d="M60.5,78c-1.963,0-3.5-1.098-3.5-2.5s1.537-2.5,3.5-2.5s3.5,1.098,3.5,2.5S62.463,78,60.5,78z M60.5,74c-1.355,0-2.5,0.687-2.5,1.5s1.145,1.5,2.5,1.5s2.5-0.687,2.5-1.5S61.855,74,60.5,74z"/><ellipse cx="54.5" cy="79.5" fill="#fbcd59" rx="3" ry="2"/><path fill="#472b29" d="M54.5,82c-1.963,0-3.5-1.098-3.5-2.5s1.537-2.5,3.5-2.5s3.5,1.098,3.5,2.5S56.463,82,54.5,82z M54.5,78c-1.355,0-2.5,0.687-2.5,1.5s1.145,1.5,2.5,1.5s2.5-0.687,2.5-1.5S55.855,78,54.5,78z"/><ellipse cx="65.5" cy="76.5" fill="#fbcd59" rx="3" ry="2"/><path fill="#472b29" d="M65.5,79c-1.963,0-3.5-1.098-3.5-2.5s1.537-2.5,3.5-2.5s3.5,1.098,3.5,2.5S67.463,79,65.5,79z M65.5,75c-1.355,0-2.5,0.687-2.5,1.5s1.145,1.5,2.5,1.5s2.5-0.687,2.5-1.5S66.855,75,65.5,75z"/><rect width="46" height="22" x="30" y="50" fill="#ce942b"/><path fill="#472b29" d="M71.5,55.75H60.958c-0.138,0-0.25-0.112-0.25-0.25s0.112-0.25,0.25-0.25H71.5 c0.138,0,0.25,0.112,0.25,0.25S71.638,55.75,71.5,55.75z"/><path fill="#472b29" d="M46.375,55.75h-8.333c-0.138,0-0.25-0.112-0.25-0.25s0.112-0.25,0.25-0.25h8.333 c0.138,0,0.25,0.112,0.25,0.25S46.513,55.75,46.375,55.75z"/><path fill="#472b29" d="M35.958,55.75H30.5c-0.138,0-0.25-0.112-0.25-0.25s0.112-0.25,0.25-0.25h5.458 c0.138,0,0.25,0.112,0.25,0.25S36.096,55.75,35.958,55.75z"/><path fill="#472b29" d="M75.5,60.75H59.708c-0.138,0-0.25-0.112-0.25-0.25s0.112-0.25,0.25-0.25H75.5 c0.138,0,0.25,0.112,0.25,0.25S75.638,60.75,75.5,60.75z"/><path fill="#472b29" d="M39,31.75h-7.292c-0.138,0-0.25-0.112-0.25-0.25s0.112-0.25,0.25-0.25H39 c0.138,0,0.25,0.112,0.25,0.25S39.138,31.75,39,31.75z"/><g><path fill="#472b29" d="M74,31.75H42c-0.138,0-0.25-0.112-0.25-0.25s0.112-0.25,0.25-0.25h32c0.138,0,0.25,0.112,0.25,0.25 S74.138,31.75,74,31.75z"/></g><g><path fill="#472b29" d="M72.5,28.75H63c-0.138,0-0.25-0.112-0.25-0.25s0.112-0.25,0.25-0.25h9.5 c0.138,0,0.25,0.112,0.25,0.25S72.638,28.75,72.5,28.75z"/></g><g><path fill="#472b29" d="M60.5,28.75H33c-0.138,0-0.25-0.112-0.25-0.25s0.112-0.25,0.25-0.25h27.5 c0.138,0,0.25,0.112,0.25,0.25S60.638,28.75,60.5,28.75z"/></g><g><path fill="#472b29" d="M47.417,60.75h-4.875c-0.138,0-0.25-0.112-0.25-0.25s0.112-0.25,0.25-0.25h4.875 c0.138,0,0.25,0.112,0.25,0.25S47.555,60.75,47.417,60.75z"/></g><g><path fill="#472b29" d="M40.542,60.75H30.5c-0.138,0-0.25-0.112-0.25-0.25s0.112-0.25,0.25-0.25h10.042 c0.138,0,0.25,0.112,0.25,0.25S40.68,60.75,40.542,60.75z"/></g><g><path fill="#472b29" d="M75.5,65.75H57.708c-0.138,0-0.25-0.112-0.25-0.25s0.112-0.25,0.25-0.25H75.5 c0.138,0,0.25,0.112,0.25,0.25S75.638,65.75,75.5,65.75z"/></g><g><path fill="#472b29" d="M48.583,65.75H30.5c-0.138,0-0.25-0.112-0.25-0.25s0.112-0.25,0.25-0.25h18.083 c0.138,0,0.25,0.112,0.25,0.25S48.721,65.75,48.583,65.75z"/></g><g><path fill="#fbcd59" d="M35,65.688v-1.109C35,63.707,34.293,63,33.422,63H31v4v4h4h4v-2.422C39,67.707,38.293,67,37.422,67 h-1.109C35.588,67,35,66.412,35,65.688z"/><path fill="#472b29" d="M39.25,71.25h-8.5v-8.5h2.672c1.008,0,1.828,0.82,1.828,1.828v1.109 c0,0.586,0.477,1.063,1.063,1.063h1.109c1.008,0,1.828,0.82,1.828,1.828V71.25z M31.25,70.75h7.5v-2.172 c0-0.732-0.596-1.328-1.328-1.328h-1.109c-0.861,0-1.563-0.701-1.563-1.563v-1.109c0-0.732-0.596-1.328-1.328-1.328H31.25V70.75z"/></g><g><path fill="#fbcd59" d="M69.688,67h-1.109C67.707,67,67,67.707,67,68.578V71h4h4v-4v-4h-2.422 C71.707,63,71,63.707,71,64.578v1.109C71,66.412,70.412,67,69.688,67z"/><path fill="#472b29" d="M75.25,71.25h-8.5v-2.672c0-1.008,0.82-1.828,1.828-1.828h1.109c0.586,0,1.063-0.477,1.063-1.063 v-1.109c0-1.008,0.82-1.828,1.828-1.828h2.672V71.25z M67.25,70.75h7.5v-7.5h-2.172c-0.732,0-1.328,0.596-1.328,1.328v1.109 c0,0.862-0.701,1.563-1.563,1.563h-1.109c-0.732,0-1.328,0.596-1.328,1.328V70.75z"/></g><g><path fill="#fbcd59" d="M59,50.625H48v6.162c0,0.625,0.308,1.209,0.819,1.552l1.33,0.893 c0.465,0.312,0.532,0.982,0.139,1.385L49.4,61.526c-0.469,0.48-0.469,1.259,0,1.74l3.25,3.326c0.469,0.48,1.23,0.48,1.7,0 l3.25-3.326c0.469-0.48,0.469-1.259,0-1.74l-0.888-0.909c-0.393-0.402-0.326-1.073,0.139-1.385l1.33-0.893 C58.692,57.996,59,57.413,59,56.787V50.625z"/><path fill="#472b29" d="M53.5,67.202c-0.389,0-0.755-0.155-1.028-0.436l-3.25-3.326c-0.563-0.576-0.563-1.513,0-2.089 l0.888-0.909c0.136-0.139,0.202-0.332,0.183-0.529c-0.021-0.195-0.123-0.367-0.282-0.474l-1.33-0.893 c-0.582-0.39-0.93-1.048-0.93-1.759v-6.412h11.5v6.412c0,0.711-0.348,1.369-0.93,1.76l-1.33,0.892 c-0.159,0.107-0.262,0.28-0.282,0.474c-0.02,0.197,0.047,0.389,0.183,0.528l0.888,0.909c0.563,0.576,0.563,1.513,0,2.089 l-3.25,3.326C54.255,67.047,53.889,67.202,53.5,67.202z M48.25,50.875v5.912c0,0.544,0.265,1.047,0.709,1.344l1.33,0.893 c0.282,0.19,0.465,0.495,0.5,0.838c0.035,0.345-0.082,0.684-0.322,0.929L49.579,61.7c-0.375,0.384-0.375,1.007,0,1.39l3.25,3.326 c0.359,0.368,0.982,0.368,1.342,0l3.25-3.327c0.375-0.383,0.375-1.007,0-1.39l-0.888-0.909c-0.24-0.245-0.357-0.584-0.322-0.929 c0.035-0.343,0.218-0.648,0.5-0.838l1.33-0.893c0.444-0.298,0.709-0.8,0.709-1.344v-5.912H48.25z"/></g><g><polygon fill="#472b29" points="72.001,41 75.976,36 74.294,36 70.835,40.223 70.408,40.864 70.721,41.568 74.6,50.297 74.6,70.6 31.4,70.6 31.4,50.297 35.28,41.569 35.593,40.865 35.165,40.224 31.656,36 29.974,36 34.001,41 34,41 30,50 30,72 76,72 76,50 72,41"/></g><g><path fill="#ce942b" d="M53.5,62.5L53.5,62.5c-0.552,0-1-0.448-1-1v-4c0-0.552,0.448-1,1-1l0,0c0.552,0,1,0.448,1,1v4 C54.5,62.052,54.052,62.5,53.5,62.5z"/><path fill="#472b29" d="M53.5,62.75c-0.689,0-1.25-0.561-1.25-1.25v-4c0-0.689,0.561-1.25,1.25-1.25s1.25,0.561,1.25,1.25 v4C54.75,62.189,54.189,62.75,53.5,62.75z M53.5,56.75c-0.413,0-0.75,0.336-0.75,0.75v4c0,0.414,0.337,0.75,0.75,0.75 s0.75-0.336,0.75-0.75v-4C54.25,57.086,53.913,56.75,53.5,56.75z"/></g><g><rect width="45" height="1" x="30.5" y="50" fill="#472b29"/></g><g><rect width="3.902" height="3.902" x="41.496" y="41.887" fill="#ee3e54" transform="rotate(18.986 43.444 43.831)"/><polygon fill="#f4989e" points="43.447,43.838 42.236,41.358 40.967,45.048 40.967,45.048"/><polygon fill="#f4989e" points="43.428,43.831 44.639,46.311 45.908,42.621 45.908,42.621"/><path fill="#472b29" d="M44.657,46.567c-0.027,0-0.055-0.004-0.081-0.014l-3.689-1.269 c-0.131-0.045-0.2-0.187-0.155-0.318L42,41.277c0.021-0.063,0.067-0.114,0.127-0.143c0.059-0.029,0.128-0.034,0.19-0.012 l3.689,1.269c0.131,0.045,0.2,0.187,0.155,0.318l-1.269,3.69c-0.021,0.063-0.067,0.114-0.127,0.143 C44.732,46.559,44.695,46.567,44.657,46.567z M41.285,44.893L44.502,46l1.106-3.217l-3.217-1.106L41.285,44.893z"/></g><g><rect width="3.902" height="3.902" x="54.612" y="38.924" fill="#00a5a5" transform="rotate(45.001 56.563 40.875)"/><polygon fill="#a8dbdb" points="56.563,40.875 56.563,38.116 53.803,40.875 53.804,40.875"/><polygon fill="#a8dbdb" points="56.549,40.861 56.549,43.62 59.308,40.861 59.308,40.861"/><path fill="#472b29" d="M56.563,43.884c-0.066,0-0.13-0.026-0.177-0.073l-2.759-2.759c-0.098-0.098-0.098-0.256,0-0.354 l2.759-2.759c0.094-0.094,0.26-0.094,0.354,0l2.759,2.759c0.098,0.098,0.098,0.256,0,0.354l-2.759,2.759 C56.692,43.858,56.629,43.884,56.563,43.884z M54.157,40.875l2.405,2.406l2.405-2.406l-2.405-2.406L54.157,40.875z"/></g><g><rect width="3.902" height="3.902" x="61.195" y="44.007" fill="#00a5a5" transform="rotate(45.001 63.147 45.958)"/><polygon fill="#a8dbdb" points="63.146,45.958 63.146,43.199 60.387,45.958 60.387,45.958"/><polygon fill="#a8dbdb" points="63.132,45.945 63.132,48.704 65.891,45.945 65.891,45.945"/><path fill="#472b29" d="M63.146,48.967c-0.064,0-0.128-0.024-0.177-0.073l-2.759-2.759c-0.098-0.098-0.098-0.256,0-0.354 l2.759-2.759c0.098-0.098,0.256-0.098,0.354,0l2.76,2.759c0.047,0.047,0.073,0.11,0.073,0.177s-0.026,0.13-0.073,0.177 l-2.76,2.759C63.273,48.943,63.21,48.967,63.146,48.967z M60.74,45.958l2.405,2.406l2.406-2.406l-2.406-2.406L60.74,45.958z"/></g><g><path fill="#472b29" d="M57.5,53.25h-4.417c-0.138,0-0.25-0.112-0.25-0.25s0.112-0.25,0.25-0.25H57.5 c0.138,0,0.25,0.112,0.25,0.25S57.638,53.25,57.5,53.25z"/></g><g><path fill="#472b29" d="M51.417,53.25H49.5c-0.138,0-0.25-0.112-0.25-0.25s0.112-0.25,0.25-0.25h1.917 c0.138,0,0.25,0.112,0.25,0.25S51.555,53.25,51.417,53.25z"/></g><g><path fill="#fbcd59" d="M53,30c-2.761,0-5,2.183-5,4.875h10C58,32.183,55.761,30,53,30z"/><path fill="#472b29" d="M58.25,35.125h-10.5v-0.25c0-2.826,2.355-5.125,5.25-5.125s5.25,2.299,5.25,5.125V35.125z M48.257,34.625h9.486c-0.134-2.434-2.21-4.375-4.743-4.375S48.391,32.191,48.257,34.625z"/></g></g><g><path fill="#fdfcef" d="M20.375,66.5c0,0-1.567,0-3.5,0s-3.5-1.567-3.5-3.5c0-1.781,1.335-3.234,3.055-3.455 c-0.028-0.179-0.055-0.358-0.055-0.545c0-1.933,1.567-3.5,3.5-3.5c1.032,0,1.95,0.455,2.59,1.165 c0.384-1.808,1.987-3.165,3.91-3.165c2.209,0,4,1.791,4,4c0,0.191-0.03,0.374-0.056,0.558c0.428-0.344,0.965-0.558,1.556-0.558 c1.228,0,2.245,0.887,2.455,2.055c0.179-0.028,0.358-0.055,0.545-0.055c1.933,0,3.5,1.567,3.5,3.5s-1.567,3.5-3.5,3.5 s-7.5,0-7.5,0V67h-7V66.5z"/><path fill="#472b29" d="M18.625,62c0.138,0,0.25-0.112,0.25-0.25c0-1.223-0.995-2.218-2.218-2.218 c-0.034,0.009-0.737-0.001-1.244,0.136c-0.133,0.036-0.212,0.173-0.176,0.306c0.036,0.134,0.173,0.213,0.306,0.176 c0.444-0.12,1.1-0.12,1.113-0.118c0.948,0,1.719,0.771,1.719,1.718C18.375,61.888,18.487,62,18.625,62z"/><circle cx="25.375" cy="66.5" r=".5" fill="#472b29"/><path fill="#472b29" d="M16.875,67h3.5c0.276,0,0.5-0.224,0.5-0.5s-0.224-0.5-0.5-0.5h-3.5c-1.654,0-3-1.346-3-3 c0-1.496,1.125-2.768,2.618-2.959c0.134-0.018,0.255-0.088,0.336-0.196s0.115-0.244,0.094-0.377 C16.9,59.314,16.875,59.16,16.875,59c0-1.654,1.346-3,3-3c0.85,0,1.638,0.355,2.219,1c0.125,0.139,0.321,0.198,0.5,0.148 c0.182-0.049,0.321-0.195,0.36-0.379C23.295,55.165,24.734,54,26.375,54c1.93,0,3.5,1.57,3.5,3.5c0,0.143-0.021,0.28-0.041,0.418 c-0.029,0.203,0.063,0.438,0.242,0.54c0.179,0.102,0.396,0.118,0.556-0.01C30.997,58.155,31.426,58,31.875,58 c0.966,0,1.792,0.691,1.963,1.644c0.048,0.267,0.296,0.446,0.569,0.405C34.561,60.025,34.715,60,34.875,60c1.654,0,3,1.346,3,3 s-1.346,3-3,3h-7.5c-0.276,0-0.5,0.224-0.5,0.5s0.224,0.5,0.5,0.5h7.5c2.206,0,4-1.794,4-4s-1.794-4-4-4 c-0.059,0-0.116,0.002-0.174,0.006C34.287,57.82,33.164,57,31.875,57c-0.349,0-0.689,0.061-1.011,0.18 C30.699,54.847,28.749,53,26.375,53c-1.831,0-3.466,1.127-4.153,2.774C21.542,55.276,20.72,55,19.875,55c-2.206,0-4,1.794-4,4 c0,0.048,0.001,0.095,0.004,0.142c-1.743,0.448-3.004,2.027-3.004,3.858C12.875,65.206,14.669,67,16.875,67z"/><path fill="#472b29" d="M22.375,66c0.159,0,0.841,0,1,0c0.276,0,0.5,0.224,0.5,0.5c0,0.276-0.224,0.5-0.5,0.5 c-0.159,0-0.841,0-1,0c-0.276,0-0.5-0.224-0.5-0.5C21.875,66.224,22.099,66,22.375,66z"/></g></svg>