<svg xmlns="http://www.w3.org/2000/svg"  viewBox="0 0 64 64" width="512px" height="512px"><g data-name="Fill Outline"><path fill="#fcea42" d="M31.5,43.5h0a3.609,3.609,0,0,0,4.95,2.05h0A3.609,3.609,0,0,0,38.5,50.5h0a3.609,3.609,0,0,0-2.05,4.95h0A3.609,3.609,0,0,0,31.5,57.5h0a3.609,3.609,0,0,0-4.95-2.05h0A3.609,3.609,0,0,0,24.5,50.5h0a3.609,3.609,0,0,0,2.05-4.95h0A3.609,3.609,0,0,0,31.5,43.5Z"/><path fill="#fdc741" d="M31.5,54.251a5.621,5.621,0,0,0-2.651-1.1,5.571,5.571,0,0,0-.375-1.395,5.65,5.65,0,0,0-.723-1.255,5.65,5.65,0,0,0,.723-1.255,5.573,5.573,0,0,0,.375-1.394,5.627,5.627,0,0,0,2.651-1.1,5.621,5.621,0,0,0,2.651,1.1,5.571,5.571,0,0,0,.375,1.395,5.65,5.65,0,0,0,.723,1.255,5.65,5.65,0,0,0-.723,1.255,5.571,5.571,0,0,0-.375,1.395A5.621,5.621,0,0,0,31.5,54.251Z"/><rect width="4" height="12" x="36.255" y="34.821" fill="#ade8f4" rx="2" ry="2" transform="rotate(-35 38.256 40.822)"/><rect width="4" height="12" x="51" y="24.497" fill="#ade8f4" rx="2" ry="2" transform="rotate(-35 53 30.496)"/><rect width="14" height="8" x="38.628" y="31.659" fill="#48cae4" transform="rotate(-35 45.628 35.66)"/><rect width="6" height="4" x="46.069" y="38.574" fill="#00b4d8" transform="rotate(-35 49.07 40.574)"/><path fill="#ade8f4" d="M52.674,40.492l-4.915,3.441L54.031,54.2a3.758,3.758,0,0,0,5.362,1.119h0a3.758,3.758,0,0,0,.782-5.421Z"/><path fill="#48cae4" d="M42.537,43.9a2,2,0,0,1-3.626,1.342l-4.589-6.553a2.006,2.006,0,0,1,.491-2.785,2.122,2.122,0,0,1,.224-.133,1.914,1.914,0,0,0,.349.952l4.589,6.553A2.005,2.005,0,0,0,42.537,43.9Z"/><path fill="#48cae4" d="M57.282,33.578a2,2,0,0,1-3.626,1.342l-4.589-6.553a2.006,2.006,0,0,1,.491-2.785,2.122,2.122,0,0,1,.224-.133,1.914,1.914,0,0,0,.349.952l4.589,6.553A2.005,2.005,0,0,0,57.282,33.578Z"/><path fill="#00b4d8" d="M49.067,28.368l4.589,6.553-11.468,8.03L37.6,36.4l1.638-1.147A5,5,0,0,0,46.2,36.478l2.457-1.721a3,3,0,0,0,.737-4.178l-1.147-1.638Z"/><path fill="#0096c7" d="M50.379,37.215l.574.819a3.179,3.179,0,0,0-.876,4.276l-2.318,1.623-2.294-3.277Z"/><path fill="#48cae4" d="M60.968,51.762A3.759,3.759,0,0,1,54.033,54.2L47.759,43.933l2.318-1.623,5.266,8.532A3.76,3.76,0,0,0,60.968,51.762Z"/><polygon fill="#95d5b2" points="12 27 12 36 6 41 6 27 12 27"/><polygon fill="#95d5b2" points="18 18 18 31 12 36 12 18 18 18"/><polygon fill="#95d5b2" points="24 15 24 26 18 31 18 15 24 15"/><polygon fill="#95d5b2" points="30 8 30 24 24 23 24 8 30 8"/><polygon fill="#95d5b2" points="36 13 36 28 30 22 30 13 36 13"/><polygon fill="#95d5b2" points="42 3 42 22 36 27 36 3 42 3"/><polygon fill="#52b788" points="39 3 39 24.5 36 27 36 3 39 3"/><polygon fill="#52b788" points="33 13 33 25 30 22 30 13 33 13"/><polygon fill="#52b788" points="27 8 27 23.5 24 23 24 8 27 8"/><polygon fill="#52b788" points="21 15 21 28.5 18 31 18 15 21 15"/><polygon fill="#52b788" points="15 18 15 33.5 12 36 12 18 15 18"/><polygon fill="#52b788" points="9 27 9 38.5 6 41 6 27 9 27"/><path fill="#ef5350" d="M55,7H48a2,2,0,0,0,0,4h2.172L35.5,25.671l-6.086-6.085a2,2,0,0,0-2.828,0l-23,23a2,2,0,1,0,2.828,2.828L28,23.829l6.086,6.085a2,2,0,0,0,2.828,0L53,13.828V16a2,2,0,0,0,4,0V9A2,2,0,0,0,55,7Z"/><path fill="#e53935" d="M57,9v7a2,2,0,0,1-4,0V13.83L36.91,29.91a1.974,1.974,0,0,1-2.82,0L28,23.83,6.41,45.41a1.994,1.994,0,1,1-2.82-2.82l.29-.29a3.022,3.022,0,0,0,3.41-.59L26.02,22.98a3,3,0,0,1,4.09-.13l3.78,3.3a3,3,0,0,0,4.09-.13L55.2,8.8a2.942,2.942,0,0,0,.81-1.52A1.992,1.992,0,0,1,57,9Z"/><circle cx="13" cy="44" r="10" fill="#fcea42"/><circle cx="13" cy="44" r="8" fill="#fdc741"/><path fill="#fdc741" d="M22.4,47.41A10,10,0,1,1,7.6,35.59,9.9,9.9,0,0,0,7,39,10,10,0,0,0,17,49,9.889,9.889,0,0,0,22.4,47.41Z"/><path fill="#efad1b" d="M13,36a8,8,0,1,0,8,8A8,8,0,0,0,13,36Zm5.45,12.89A9.9,9.9,0,0,1,17,49,10.013,10.013,0,0,1,7,39.08a7.983,7.983,0,0,1,11.45,9.81Z"/><path fill="#ade8f4" d="M25,57H43a2,2,0,0,1,2,2v2a0,0,0,0,1,0,0H23a0,0,0,0,1,0,0V59A2,2,0,0,1,25,57Z"/><path fill="#ade8f4" d="M27,53H41a2,2,0,0,1,2,2v2a0,0,0,0,1,0,0H25a0,0,0,0,1,0,0V55A2,2,0,0,1,27,53Z"/><path fill="#48cae4" d="M45,59v2H23V59a2.006,2.006,0,0,1,2-2h2a2.006,2.006,0,0,0,2,2Z"/><path fill="#48cae4" d="M43,55v2H25V55a2.006,2.006,0,0,1,2-2,2.006,2.006,0,0,0,2,2Z"/><g data-name="Outline copy"><path fill="#023e8a" d="M60.962,49.275,53.5,39.919l-1.721-2.457,1.787-1.251a2.976,2.976,0,0,0,1.214.519,3,3,0,0,0,2.979-4.675L53.167,25.5a3,3,0,0,0-4.915,3.442l4.015,5.734L49.81,36.4h0l-1.048.734-6.325,4.428L39,36.644l7.577-5.306A1,1,0,1,0,45.427,29.7L37.7,35.112a2.993,2.993,0,0,0-4.191,4.155L38.1,45.82a2.982,2.982,0,0,0,1.937,1.233,3.016,3.016,0,0,0,.527.047,2.98,2.98,0,0,0,2.876-3.8l1.788-1.252,1.686,2.406,6.272,10.266A4.775,4.775,0,0,0,56.27,56.9a4.716,4.716,0,0,0,.967.1,4.757,4.757,0,0,0,3.726-7.724ZM49.725,27.048a1,1,0,0,1,1.8-.4L56.117,33.2a1,1,0,1,1-1.638,1.147l-4.589-6.553A.99.99,0,0,1,49.725,27.048Zm-8.6,17.87h0a1,1,0,0,1-1.392-.246L35.146,38.12a1,1,0,0,1,1.639-1.147l4.588,6.553a1,1,0,0,1-.245,1.393ZM46.861,40.9l3.276-2.294,1.148,1.638-3.277,2.295Zm13.11,11.732a2.758,2.758,0,0,1-5.083,1.043L49.1,44.215l3.377-2.364L59.4,50.522A2.731,2.731,0,0,1,59.972,52.636Z"/><path fill="#023e8a" d="M44,56.184V55a3,3,0,0,0-3-3H37.949a2.534,2.534,0,0,1,.886-.558,1,1,0,0,0,0-1.885,2.608,2.608,0,0,1-1.481-3.578,1,1,0,0,0-1.333-1.333,2.609,2.609,0,0,1-3.578-1.482,1,1,0,0,0-1.885,0,2.609,2.609,0,0,1-3.578,1.482,1,1,0,0,0-1.333,1.333,2.608,2.608,0,0,1-1.481,3.578,1,1,0,0,0,0,1.885,2.553,2.553,0,0,1,1.263,1.014A2.992,2.992,0,0,0,24,55v1.184A3,3,0,0,0,22,59v2a1,1,0,0,0,1,1H34a1,1,0,0,0,0-2H24V59a1,1,0,0,1,1-1H43a1,1,0,0,1,1,1v1H38a1,1,0,0,0,0,2h7a1,1,0,0,0,1-1V59A3,3,0,0,0,44,56.184ZM27.55,48.862a4.621,4.621,0,0,0,.345-1.968A4.6,4.6,0,0,0,31.5,45.4a4.6,4.6,0,0,0,3.605,1.494A4.6,4.6,0,0,0,36.6,50.5,4.624,4.624,0,0,0,35.534,52H27.466A4.619,4.619,0,0,0,26.4,50.5,4.62,4.62,0,0,0,27.55,48.862ZM26,56V55a1,1,0,0,1,1-1H41a1,1,0,0,1,1,1v1Z"/><path fill="#023e8a" d="M18.654,34.582,28,25.243l5.378,5.37a3.05,3.05,0,0,0,4.239,0l7.59-7.58a1,1,0,1,0-1.414-1.415L36.2,29.208a.994.994,0,0,1-1.4,0l-6.089-6.08a1,1,0,0,0-1.414,0L16.738,33.668a10.891,10.891,0,0,0-2.263-.557L27.3,20.292a.994.994,0,0,1,1.4,0l6.09,6.08a1,1,0,0,0,1.413,0l14.67-14.67A1,1,0,0,0,50.17,10H48a1,1,0,0,1,0-2h7a1,1,0,0,1,1,1v7a1,1,0,0,1-2,0V13.83a1,1,0,0,0-1.707-.707l-5.67,5.67a1,1,0,0,0,1.414,1.414l3.972-3.972A3,3,0,0,0,58,16V9a3,3,0,0,0-3-3H48a3,3,0,0,0-.235,5.991L43,16.755V3a1,1,0,0,0-1-1H36a1,1,0,0,0-1,1V9.17a1,1,0,1,0,2,0V4h4V18.755l-4,4V13a1,1,0,0,0-1-1H31V8a1,1,0,0,0-1-1H24a1,1,0,0,0-1,1v6H18a1,1,0,0,0-1,1v2H12a1,1,0,0,0-1,1v8H6a1,1,0,0,0-1,1v9.474a10.958,10.958,0,0,0-1.174,13.59,1,1,0,0,0,1.668-1.1A9,9,0,1,1,8.04,51.506a1,1,0,1,0-1.1,1.668A10.991,10.991,0,1,0,18.654,34.582ZM35,14v9.758l-4-3.994V14ZM25,9h4v9.2a3.042,3.042,0,0,0-3.117.68L25,19.765Zm-6,7h4v5.763l-4,4Zm-2,3v8.759l-4,4V19Zm-6,9v5.191a10.927,10.927,0,0,0-4,1.6V28Z"/><path fill="#023e8a" d="M13,48a1.5,1.5,0,0,1-1.5-1.5,1,1,0,0,0-2,0A3.494,3.494,0,0,0,12,49.837V51a1,1,0,0,0,2,0V49.837A3.49,3.49,0,0,0,13,43a1.5,1.5,0,1,1,1.5-1.5,1,1,0,0,0,2,0A3.494,3.494,0,0,0,14,38.163V37a1,1,0,0,0-2,0v1.163A3.49,3.49,0,0,0,13,45a1.5,1.5,0,0,1,0,3Z"/><path fill="#023e8a" d="M25.929,35.628a1,1,0,0,0-1.857.743l2,5a1,1,0,0,0,1.857-.743Z"/><path fill="#023e8a" d="M29,37v2a1,1,0,0,0,2,0V37a1,1,0,0,0-2,0Z"/></g></g></svg>