<svg width="122.88" height="104.6" xmlns="http://www.w3.org/2000/svg" xml:space="preserve" version="1.1">

 <g>
  <title>Layer 1</title>
  <g id="svg_1">
   <path fill="#7B572D" id="svg_2" clip-rule="evenodd" fill-rule="evenodd" d="m72.57,19.81l0,0c2.3,2.3 2.35,6.01 0.1,8.26l-1.21,1.21l9.75,9.59l-24.66,23.77l-9.5,-9.84l-37.03,37.03c-2.24,2.24 -5.96,2.2 -8.26,-0.1l0,0c-2.3,-2.3 -2.35,-6.01 -0.1,-8.26l37.17,-37.17l-7.44,-7.73l23.31,-23.78l8.35,8.19l1.28,-1.28c2.23,-2.24 5.94,-2.19 8.24,0.11l0,0l0,0zm50.31,80.08c0,2.59 -2.06,4.71 -4.59,4.71l-53.01,0.01c-2.53,0 -4.59,-2.12 -4.59,-4.71c0,-2.54 2.02,-4.71 4.59,-4.71l5.65,0c-1.42,-0.8 -2.39,-2.35 -2.39,-4.13c0,-2.54 2.02,-4.71 4.59,-4.71l37.3,0c2.53,-0.01 4.6,2.11 4.6,4.7l0,0c0,1.78 -0.98,3.34 -2.41,4.14l5.66,0c2.54,-0.01 4.6,2.11 4.6,4.7l0,0l0,0zm-69.2,-98.49l0,0c1.83,1.83 1.87,4.79 0.08,6.57l-27.2,27.2c-1.79,1.79 -4.74,1.75 -6.57,-0.08l0,0c-1.83,-1.83 -1.87,-4.79 -0.08,-6.57l27.2,-27.2c1.79,-1.79 4.74,-1.75 6.57,0.08l0,0l0,0zm38.67,38.66l0,0c1.83,1.83 1.87,4.79 0.08,6.57l-27.2,27.2c-1.79,1.79 -4.74,1.75 -6.57,-0.08l0,0c-1.83,-1.83 -1.87,-4.79 -0.08,-6.57l27.2,-27.2c1.78,-1.79 4.73,-1.75 6.57,0.08l0,0l0,0z" class="st0"/>
  </g>
 </g>
</svg>